<svg width="210" height="22" viewBox="0 0 210 22" fill="none" xmlns="http://www.w3.org/2000/svg">
<g clip-path="url(#clip0)">
<path d="M45.0289 2.76611C45.0289 1.2503 46.2719 0.0214844 47.8051 0.0214844H75.5668C77.1001 0.0214844 78.343 1.2503 78.343 2.76611V19.2339C78.343 20.7497 77.1001 21.9785 75.5668 21.9785H47.8051C46.2719 21.9785 45.0289 20.7497 45.0289 19.2339V2.76611Z" fill="#D8E3F3"/>
<path d="M73.7 6.9043H71.9548C71.4271 6.9043 71.0213 7.0648 70.7777 7.58644L67.4496 15.09H69.8037C69.8037 15.09 70.2095 14.0869 70.2907 13.8461C70.5342 13.8461 72.8477 13.8461 73.1724 13.8461C73.2536 14.127 73.4565 15.0499 73.4565 15.0499H75.5671L73.7 6.9043ZM70.9401 12.1608C71.143 11.6793 71.833 9.87363 71.833 9.87363C71.833 9.91376 72.036 9.39212 72.1171 9.11123L72.2795 9.8335C72.2795 9.8335 72.7259 11.7997 72.8071 12.2009H70.9401V12.1608Z" fill="#3362AB"/>
<path d="M67.6117 12.4035C67.6117 14.0888 66.0694 15.2124 63.6747 15.2124C62.6601 15.2124 61.686 15.0117 61.1583 14.771L61.483 12.9252L61.7671 13.0456C62.4977 13.3666 62.9848 13.4869 63.8777 13.4869C64.5271 13.4869 65.2171 13.2462 65.2171 12.6844C65.2171 12.3233 64.9329 12.0825 64.04 11.6813C63.1877 11.28 62.0512 10.638 62.0512 9.47434C62.0512 7.86929 63.6342 6.78589 65.8665 6.78589C66.7188 6.78589 67.4494 6.94639 67.8958 7.14702L67.5711 8.91257L67.4088 8.75207C67.0029 8.59156 66.4753 8.43106 65.7041 8.43106C64.8518 8.47119 64.4459 8.83232 64.4459 9.15333C64.4459 9.51446 64.9329 9.79535 65.7041 10.1565C67.0029 10.7584 67.6117 11.4405 67.6117 12.4035Z" fill="#3362AB"/>
<path d="M47.8051 6.98594L47.8456 6.82544H51.3362C51.8232 6.82544 52.1885 6.98594 52.3102 7.50758L53.0814 11.1189C52.3102 9.19288 50.5244 7.62796 47.8051 6.98594Z" fill="#F9B50B"/>
<path d="M57.9926 6.90585L54.4615 15.0515H52.0668L50.0375 8.23001C51.4986 9.15291 52.7162 10.5975 53.1627 11.6006L53.4062 12.4433L55.5979 6.86572H57.9926V6.90585Z" fill="#3362AB"/>
<path d="M58.9261 6.86572H61.1584L59.7378 15.0515H57.5055L58.9261 6.86572Z" fill="#3362AB"/>
</g>
<g clip-path="url(#clip1)">
<path d="M0.957642 2.76611C0.957642 1.2503 2.22883 0.0214844 3.79691 0.0214844H32.1896C33.7577 0.0214844 35.0289 1.2503 35.0289 2.76611V19.2339C35.0289 20.7497 33.7577 21.9785 32.1896 21.9785H3.79691C2.22883 21.9785 0.957642 20.7497 0.957642 19.2339V2.76611Z" fill="#CCDEFF"/>
<path d="M8.60292 7.92412C8.24704 7.68763 7.78265 7.56909 7.20975 7.56909H4.99178C4.81615 7.56909 4.71912 7.654 4.70069 7.82365L3.7997 13.2908C3.79034 13.3445 3.80424 13.3936 3.84127 13.4383C3.87809 13.483 3.9244 13.5053 3.97987 13.5053H5.03339C5.21817 13.5053 5.31973 13.4206 5.33838 13.2507L5.58786 11.7768C5.59697 11.7053 5.62947 11.6472 5.68493 11.6025C5.74035 11.5579 5.80967 11.5287 5.89285 11.5153C5.97602 11.502 6.05445 11.4953 6.12852 11.4953C6.20237 11.4953 6.29012 11.4999 6.39194 11.5088C6.49351 11.5177 6.55825 11.522 6.586 11.522C7.38072 11.522 8.00451 11.3056 8.45742 10.8721C8.91011 10.439 9.13672 9.83825 9.13672 9.06978C9.13672 8.54272 8.95863 8.16087 8.60292 7.924V7.92412ZM7.45936 9.56575C7.41301 9.87848 7.29301 10.0838 7.09895 10.1821C6.90485 10.2806 6.62761 10.3296 6.26724 10.3296L5.80976 10.3429L6.04547 8.90906C6.06386 8.81088 6.1239 8.76173 6.22563 8.76173H6.4891C6.85858 8.76173 7.12675 8.81322 7.2931 8.91578C7.45936 9.01859 7.51483 9.2353 7.45936 9.56575Z" fill="#003087"/>
<path d="M32.0091 7.56909H30.9834C30.8815 7.56909 30.8215 7.61824 30.8031 7.71659L29.9021 13.2911L29.8882 13.3179C29.8882 13.3628 29.9067 13.405 29.9437 13.4452C29.9805 13.4854 30.0269 13.5055 30.0823 13.5055H30.9973C31.1726 13.5055 31.2697 13.4208 31.2885 13.2509L32.1895 7.7702V7.75689C32.1894 7.63176 32.1292 7.56926 32.0091 7.56926V7.56909Z" fill="#009CDE"/>
<path d="M19.6161 9.72787C19.6161 9.68331 19.5976 9.6408 19.5608 9.6007C19.5238 9.56052 19.4822 9.54028 19.4361 9.54028H18.3687C18.2668 9.54028 18.1836 9.58517 18.1191 9.67426L16.6497 11.7648L16.0398 9.75474C15.9933 9.61192 15.8918 9.54028 15.7348 9.54028H14.695C14.6487 9.54028 14.6071 9.56044 14.5704 9.6007C14.5333 9.6408 14.5149 9.68339 14.5149 9.72787C14.5149 9.74586 14.605 10.0093 14.7852 10.5185C14.9653 11.0279 15.1594 11.5773 15.3674 12.1669C15.5753 12.7565 15.6838 13.0693 15.6931 13.1047C14.9353 14.1054 14.5565 14.6414 14.5565 14.7128C14.5565 14.829 14.6165 14.887 14.7367 14.887H15.8041C15.9057 14.887 15.9888 14.8424 16.0537 14.7531L19.5886 9.82163C19.6069 9.80394 19.6161 9.77281 19.6161 9.72783V9.72787Z" fill="#003087"/>
<path d="M29.5563 9.53838H28.5028C28.3733 9.53838 28.295 9.68583 28.2672 9.98069C28.0267 9.62345 27.588 9.44458 26.9502 9.44458C26.2848 9.44458 25.7187 9.68583 25.2521 10.1682C24.7854 10.6507 24.5521 11.2181 24.5521 11.8702C24.5521 12.3974 24.7115 12.8172 25.0303 13.1297C25.3491 13.4426 25.7765 13.5988 26.3127 13.5988C26.5806 13.5988 26.8532 13.5451 27.1305 13.438C27.4077 13.3308 27.6247 13.1879 27.7821 13.0092C27.7821 13.0181 27.7726 13.0582 27.7544 13.1296C27.7357 13.2012 27.7266 13.255 27.7266 13.2904C27.7266 13.4335 27.7865 13.5048 27.9068 13.5048H28.8634C29.0388 13.5048 29.1406 13.4201 29.1682 13.2502L29.7366 9.75276C29.7457 9.6991 29.7319 9.65007 29.695 9.60534C29.6579 9.56078 29.6118 9.53838 29.5563 9.53838ZM27.7474 12.1784C27.5117 12.4017 27.2275 12.5133 26.8948 12.5133C26.6267 12.5133 26.4097 12.442 26.2433 12.2989C26.0768 12.1563 25.9937 11.9598 25.9937 11.7093C25.9937 11.379 26.1092 11.0996 26.3403 10.8718C26.5711 10.644 26.8578 10.5302 27.1998 10.5302C27.4583 10.5302 27.6732 10.6038 27.8443 10.7512C28.0151 10.8986 28.1009 11.1019 28.1009 11.361C28.1008 11.6826 27.983 11.9551 27.7474 12.1784Z" fill="#009CDE"/>
<path d="M13.8084 9.53838H12.7549C12.6253 9.53838 12.5469 9.68583 12.5192 9.98069C12.2697 9.62345 11.8306 9.44458 11.2022 9.44458C10.5368 9.44458 9.97072 9.68583 9.50409 10.1682C9.03733 10.6507 8.80408 11.2181 8.80408 11.8702C8.80408 12.3974 8.96352 12.8172 9.28236 13.1297C9.6012 13.4426 10.0285 13.5988 10.5646 13.5988C10.8232 13.5988 11.0914 13.5451 11.3686 13.438C11.6458 13.3308 11.8676 13.1879 12.034 13.0092C11.9969 13.1163 11.9785 13.2101 11.9785 13.2904C11.9785 13.4335 12.0386 13.5048 12.1587 13.5048H13.1152C13.2907 13.5048 13.3924 13.4201 13.4202 13.2502L13.9885 9.75276C13.9976 9.6991 13.9838 9.65007 13.947 9.60534C13.91 9.56078 13.8638 9.53838 13.8084 9.53838ZM11.9994 12.185C11.7637 12.4041 11.4748 12.5133 11.133 12.5133C10.8649 12.5133 10.65 12.442 10.4884 12.2989C10.3266 12.1563 10.2458 11.9598 10.2458 11.7093C10.2458 11.379 10.3613 11.0996 10.5924 10.8718C10.8233 10.644 11.1098 10.5301 11.4518 10.5301C11.7105 10.5301 11.9253 10.6038 12.0965 10.7512C12.2673 10.8986 12.3529 11.1019 12.3529 11.361C12.3529 11.6916 12.2351 11.9663 11.9994 12.185Z" fill="#003087"/>
<path d="M24.3506 7.92412C23.9947 7.68763 23.5305 7.56909 22.9574 7.56909H20.7533C20.5684 7.56909 20.4667 7.654 20.4483 7.82365L19.5473 13.2908C19.5379 13.3445 19.5518 13.3936 19.5889 13.4383C19.6255 13.483 19.672 13.5053 19.7274 13.5053H20.8641C20.975 13.5053 21.0489 13.4473 21.0859 13.3311L21.3355 11.7768C21.3447 11.7053 21.377 11.6472 21.4325 11.6025C21.488 11.5579 21.5572 11.5287 21.6405 11.5153C21.7236 11.502 21.802 11.4953 21.8761 11.4953C21.95 11.4953 22.0377 11.4999 22.1394 11.5088C22.2411 11.5177 22.306 11.522 22.3335 11.522C23.1284 11.522 23.7521 11.3056 24.205 10.8721C24.6578 10.439 24.8842 9.83825 24.8842 9.06978C24.8843 8.54272 24.7063 8.16082 24.3506 7.924V7.92412ZM22.9297 10.1285C22.7264 10.2625 22.4213 10.3294 22.0148 10.3294L21.5712 10.3429L21.8068 8.90898C21.8251 8.81084 21.8852 8.76161 21.987 8.76161H22.2364C22.4398 8.76161 22.6015 8.77058 22.7218 8.7884C22.8417 8.80634 22.9574 8.86208 23.0683 8.95584C23.1793 9.04967 23.2347 9.18598 23.2347 9.36456C23.2347 9.73991 23.1329 9.99439 22.9297 10.1285Z" fill="#009CDE"/>
</g>
<g clip-path="url(#clip2)">
<path d="M88.343 2.76611C88.343 1.2503 89.586 0.0214844 91.1192 0.0214844H118.881C120.414 0.0214844 121.657 1.2503 121.657 2.76611V19.2339C121.657 20.7497 120.414 21.9785 118.881 21.9785H91.1192C89.586 21.9785 88.343 20.7497 88.343 19.2339V2.76611Z" fill="#CCEFFF"/>
<path d="M108.644 17.4758H101.357V4.52905H108.644V17.4758Z" fill="#6C6BBD"/>
<path d="M101.824 11C101.824 8.37369 103.067 6.03424 105.004 4.5266C103.588 3.42414 101.8 2.76612 99.8576 2.76612C95.2584 2.76612 91.5302 6.4525 91.5302 11C91.5302 15.5475 95.2584 19.2339 99.8576 19.2339C101.8 19.2339 103.588 18.5759 105.004 17.4734C103.067 15.9658 101.824 13.6263 101.824 11Z" fill="#EB001B"/>
<path d="M118.471 11C118.471 15.5475 114.743 19.2339 110.144 19.2339C108.201 19.2339 106.413 18.5759 104.996 17.4734C106.934 15.9658 108.177 13.6263 108.177 11C108.177 8.37369 106.934 6.03424 104.996 4.5266C106.413 3.42414 108.201 2.76612 110.144 2.76612C114.743 2.76612 118.471 6.4525 118.471 11Z" fill="#0099DF"/>
</g>
<g clip-path="url(#clip3)">
<path d="M131.657 2.76611C131.657 1.2503 132.928 0.0214844 134.496 0.0214844H162.889C164.457 0.0214844 165.728 1.2503 165.728 2.76611V19.2339C165.728 20.7497 164.457 21.9785 162.889 21.9785H134.496C132.928 21.9785 131.657 20.7497 131.657 19.2339V2.76611Z" fill="#FCE0CF"/>
<path d="M151.944 10.9854C151.946 10.3955 151.717 9.80471 151.257 9.35953C150.796 8.91343 150.183 8.69243 149.571 8.69598C149.568 8.69598 149.566 8.6958 149.563 8.6958C148.235 8.6958 147.181 9.71374 147.181 10.9977C147.181 12.2691 148.248 13.2995 149.563 13.2995C150.891 13.2995 151.944 12.2814 151.944 10.9977C151.944 10.9935 151.944 10.9895 151.944 10.9854Z" fill="#F26E21"/>
<path d="M146.739 11.9721C146.383 12.3165 146.055 12.4511 145.701 12.4584C144.839 12.4509 144.205 11.8338 144.205 10.954C144.205 10.5112 144.379 10.1482 144.653 9.83814C144.911 9.60166 145.243 9.44886 145.625 9.44886C146.037 9.44886 146.358 9.58164 146.724 9.93579V8.91766C146.358 8.74068 146.037 8.6521 145.625 8.6521C145.043 8.69232 144.494 8.91969 144.073 9.27671C143.951 9.38225 143.835 9.49875 143.737 9.63208C143.429 10.0174 143.243 10.4892 143.243 10.9985C143.243 12.282 144.297 13.2559 145.625 13.2559C145.631 13.2559 145.638 13.2554 145.644 13.2553C145.653 13.2554 145.662 13.2559 145.67 13.2559C146.037 13.2559 146.358 13.1676 146.77 12.9905L146.739 11.9721C146.724 11.987 146.754 12.0009 146.739 12.0151V11.9721Z" fill="#2B2B2B"/>
<path d="M154.95 9.28646L153.913 11.7512L152.722 8.82935H151.761L153.638 13.3004H154.142L156.111 8.82935H155.149L154.95 9.28646Z" fill="#2B2B2B"/>
<path d="M156.478 10.7772V13.1678H158.951H158.997V12.4593H158.218H157.394V11.6627V11.2644H158.951V10.5116H157.394V9.58203H158.997V8.82935H156.478V10.7772Z" fill="#2B2B2B"/>
<path d="M135.779 8.83032H134.496V13.1688H135.779C136.466 13.1688 136.969 12.9916 137.381 12.6817C137.885 12.2833 138.206 11.6637 138.206 10.9998C138.206 9.71566 137.244 8.83032 135.779 8.83032ZM136.832 12.1064C136.557 12.3276 136.191 12.4603 135.641 12.4603H135.366V9.58294H135.595C136.145 9.58294 136.511 9.67146 136.786 9.93697C137.107 10.2024 137.29 10.6011 137.29 10.9996C137.336 11.398 137.153 11.8405 136.832 12.1064Z" fill="#2B2B2B"/>
<path d="M139.488 8.8291H138.618V13.1675H139.488V8.8291Z" fill="#2B2B2B"/>
<path d="M141.686 10.5121C141.137 10.3351 140.999 10.2022 140.999 9.98093C140.999 9.71531 141.274 9.494 141.641 9.494C141.915 9.494 142.144 9.58258 142.373 9.84821L142.831 9.27276C142.465 8.96275 142.007 8.78589 141.503 8.78589C140.725 8.78589 140.083 9.31714 140.083 10.0252C140.083 10.6451 140.359 10.9107 141.183 11.2205C141.549 11.3531 141.686 11.3976 141.778 11.4861C141.961 11.5745 142.053 11.7517 142.053 11.9286C142.053 12.2828 141.778 12.5485 141.366 12.5485C140.953 12.5485 140.587 12.3272 140.404 11.973L139.854 12.5042C140.267 13.0797 140.771 13.3452 141.412 13.3452C142.328 13.3452 142.968 12.7698 142.968 11.9286C142.968 11.1762 142.694 10.8663 141.686 10.5121Z" fill="#2B2B2B"/>
<path d="M161.47 11.3526C162.157 11.22 162.523 10.7771 162.523 10.1133C162.523 9.31658 161.928 8.82935 160.92 8.82935H159.592V13.1678H160.462V11.4412H160.6L161.836 13.1678H162.889L161.47 11.3526ZM160.737 10.8213H160.462V9.49344H160.737C161.287 9.49344 161.607 9.71469 161.607 10.1577C161.607 10.6001 161.287 10.8213 160.737 10.8213Z" fill="#2B2B2B"/>
</g>
<g clip-path="url(#clip4)">
<path d="M175.728 2.76611C175.728 1.2503 176.971 0.0214844 178.504 0.0214844H206.266C207.799 0.0214844 209.042 1.2503 209.042 2.76611V19.2339C209.042 20.7497 207.799 21.9785 206.266 21.9785H178.504C176.971 21.9785 175.728 20.7497 175.728 19.2339V2.76611Z" fill="#D4DEF7"/>
<path d="M200.313 6.79437L199.669 8.19921H200.961L200.313 6.79437ZM192.875 7.66492C192.997 7.60791 193.068 7.4839 193.068 7.3299C193.068 7.17899 192.993 7.0697 192.871 7.01834C192.761 6.9614 192.591 6.95483 192.427 6.95483H191.274V7.73757H192.412C192.594 7.73761 192.746 7.73521 192.875 7.66492ZM178.098 6.79437L177.461 8.19921H178.739L178.098 6.79437ZM207.77 15.7942H205.961V15.0383H207.762C207.941 15.0383 208.066 15.0173 208.141 14.951C208.213 14.8919 208.253 14.8085 208.252 14.7212C208.252 14.6185 208.207 14.5369 208.138 14.4881C208.07 14.4343 207.971 14.4098 207.808 14.4098C206.928 14.3829 205.831 14.4342 205.831 13.3188C205.831 12.8076 206.192 12.2695 207.175 12.2695H209.04V11.5682H207.307C206.784 11.5682 206.404 11.6808 206.135 11.8561V11.5682H203.572C203.162 11.5682 202.68 11.6596 202.453 11.8561V11.5682H197.875V11.8561C197.51 11.6197 196.895 11.5682 196.612 11.5682H193.592V11.8561C193.304 11.605 192.663 11.5682 192.272 11.5682H188.893L188.119 12.3209L187.395 11.5682H182.347V16.4868H187.3L188.097 15.722L188.847 16.4868L191.9 16.4893V15.3322H192.201C192.606 15.338 193.083 15.3233 193.505 15.1594V16.4867H196.023V15.2047H196.145C196.3 15.2047 196.315 15.2105 196.315 15.3498V16.4864H203.966C204.451 16.4864 204.959 16.3747 205.24 16.1716V16.4864H207.667C208.172 16.4864 208.665 16.4227 209.04 16.2598V15.3435C208.813 15.6427 208.369 15.7944 207.77 15.7944L207.77 15.7942ZM192.241 14.6328H191.072V15.815H189.252L188.099 14.6482L186.9 15.815H183.191V12.2903H186.957L188.11 13.4457L189.301 12.2903H192.293C193.037 12.2903 193.872 12.4754 193.872 13.4515C193.872 14.4307 193.059 14.6328 192.241 14.6328ZM197.86 14.473C197.992 14.645 198.011 14.8056 198.015 15.1163V15.8151H197.075V15.3741C197.075 15.1621 197.098 14.8481 196.923 14.6842C196.787 14.5579 196.578 14.5278 196.236 14.5278H195.235V15.8151H194.294V12.2903H196.456C196.931 12.2903 197.276 12.3093 197.583 12.4566C197.879 12.6172 198.065 12.8373 198.065 13.2394C198.065 13.8019 197.648 14.0889 197.401 14.1771C197.61 14.2463 197.78 14.3703 197.86 14.473ZM201.728 13.0192H199.535V13.66H201.675V14.3792H199.535V15.0805L201.728 15.0837V15.815H198.603V12.2903H201.728V13.0192ZM204.135 15.815H202.311V15.0592H204.128C204.305 15.0592 204.431 15.038 204.51 14.9718C204.575 14.9173 204.621 14.8381 204.621 14.7421C204.621 14.6393 204.571 14.5577 204.507 14.5088C204.435 14.4551 204.336 14.4308 204.173 14.4308C203.297 14.4038 202.2 14.455 202.2 13.3397C202.2 12.8284 202.558 12.2903 203.539 12.2903H205.417V13.0404H203.699C203.529 13.0404 203.418 13.0463 203.324 13.1042C203.221 13.1613 203.183 13.246 203.183 13.3577C203.183 13.4907 203.27 13.5812 203.388 13.6203C203.487 13.6512 203.593 13.6602 203.752 13.6602L204.257 13.6726C204.765 13.6836 205.114 13.7628 205.326 13.956C205.508 14.1257 205.606 14.34 205.606 14.7027C205.606 15.461 205.079 15.815 204.135 15.815ZM196.871 13.0761C196.758 13.0156 196.591 13.0124 196.425 13.0124H195.271V13.804H196.409C196.591 13.804 196.746 13.7982 196.871 13.7314C196.993 13.6654 197.066 13.5438 197.066 13.3931C197.066 13.2423 196.993 13.1332 196.871 13.0761ZM207.335 13.0123C207.165 13.0123 207.052 13.0182 206.956 13.076C206.858 13.1332 206.82 13.2178 206.82 13.3296C206.82 13.4625 206.903 13.553 207.024 13.5922C207.123 13.6231 207.229 13.6322 207.385 13.6322L207.893 13.6443C208.405 13.6557 208.747 13.735 208.955 13.9282C208.993 13.9549 209.016 13.9851 209.042 14.0153V13.0124H207.335L207.335 13.0123ZM192.273 13.0123H191.052V13.9101H192.262C192.622 13.9101 192.846 13.7495 192.846 13.4446C192.846 13.1363 192.611 13.0123 192.273 13.0123ZM184.123 13.0123V13.6532H186.179V14.3724H184.123V15.0736H186.426L187.496 14.0396L186.471 13.0123H184.123ZM190.136 15.4773V12.6514L188.698 14.0416L190.136 15.4773ZM184.202 9.81806V10.4254H192.026L192.023 9.14056H192.174C192.28 9.14389 192.311 9.15267 192.311 9.31012V10.4254H196.358V10.1263C196.684 10.2836 197.192 10.4254 197.86 10.4254H199.562L199.927 9.64273H200.735L201.091 10.4254H204.371V9.68194L204.868 10.4254H207.497V5.51074H204.896V6.09117L204.531 5.51074H201.861V6.09117L201.527 5.51074H197.921C197.317 5.51074 196.786 5.58652 196.358 5.79773V5.51074H193.869V5.79773C193.596 5.58002 193.225 5.51074 192.811 5.51074H183.719L183.109 6.78018L182.483 5.51074H179.619V6.09117L179.305 5.51074H176.862L175.728 7.84755V9.71674L177.405 6.19277H178.797L180.39 9.52923V6.19277H181.918L183.144 8.58334L184.27 6.19277H185.829V9.71674H184.869L184.866 6.95683L183.507 9.71674H182.685L181.324 6.95439V9.71674H179.419L179.059 8.93071H177.109L176.745 9.71674H175.728V10.4257H177.328L177.689 9.64293H178.497L178.857 10.4257H182.005V9.8272L182.286 10.4282H183.921L184.202 9.81818L184.202 9.81806ZM196.531 6.60353C196.834 6.32227 197.308 6.19257 197.954 6.19257H198.86V6.94765H197.973C197.631 6.94765 197.438 6.99336 197.252 7.15646C197.092 7.3048 196.983 7.5853 196.983 7.95464C196.983 8.3322 197.066 8.60439 197.24 8.78221C197.385 8.92165 197.647 8.96395 197.893 8.96395H198.314L199.634 6.19269H201.037L202.623 9.52582V6.19273H204.048L205.695 8.64697V6.19273H206.654V9.71658H205.327L203.552 7.0717V9.71658H201.644L201.28 8.93055H199.334L198.981 9.71658H197.885C197.43 9.71658 196.853 9.62605 196.527 9.3268C196.198 9.02762 196.027 8.62231 196.027 7.98154C196.027 7.45884 196.129 6.98109 196.531 6.60353ZM194.605 6.19261H195.561V9.71658H194.605V6.19261ZM190.297 6.19261H192.451C192.929 6.19261 193.282 6.20404 193.585 6.36141C193.881 6.51881 194.059 6.74863 194.059 7.14162C194.059 7.70353 193.642 7.99377 193.399 8.08097C193.604 8.15114 193.779 8.27506 193.862 8.3777C193.995 8.55299 194.017 8.70956 194.017 9.02425V9.71655H193.073L193.069 9.27215C193.069 9.06005 193.092 8.7551 192.922 8.58567C192.785 8.46178 192.576 8.4348 192.239 8.4348H191.234V9.71658H190.297L190.297 6.19261ZM186.522 6.19261H189.65V6.92644H187.458V7.56164H189.597V8.28401H187.458V8.98777H189.65V9.71655H186.522V6.19261Z" fill="#2557D6"/>
</g>
<defs>
<clipPath id="clip0">
<rect width="33.3141" height="21.957" fill="white" transform="translate(45.0289 0.0214844)"/>
</clipPath>
<clipPath id="clip1">
<rect width="34.0712" height="21.957" fill="white" transform="translate(0.957642 0.0214844)"/>
</clipPath>
<clipPath id="clip2">
<rect width="33.3141" height="21.957" fill="white" transform="translate(88.343 0.0214844)"/>
</clipPath>
<clipPath id="clip3">
<rect width="34.0712" height="21.957" fill="white" transform="translate(131.657 0.0214844)"/>
</clipPath>
<clipPath id="clip4">
<rect width="33.3141" height="21.957" fill="white" transform="translate(175.728 0.0214844)"/>
</clipPath>
</defs>
</svg>
