<svg width="17" height="16" viewBox="0 0 17 16" fill="none" xmlns="http://www.w3.org/2000/svg">
<path d="M2.95084 1.99141C1.79216 3.14838 1.11825 4.70363 1.06643 6.34023C1.01462 7.97682 1.5888 9.57159 2.67198 10.7995C3.75515 12.0275 5.26579 12.7962 6.89606 12.9491C8.49661 13.0991 10.0942 12.6444 11.375 11.6766L14.7062 15.0085L14.7062 15.0085C14.7891 15.0914 14.8874 15.1571 14.9957 15.2019C15.1039 15.2468 15.2199 15.2698 15.3371 15.2698C15.4542 15.2698 15.5702 15.2468 15.6785 15.2019C15.7867 15.1571 15.885 15.0914 15.9679 15.0085C16.0507 14.9257 16.1164 14.8274 16.1613 14.7191C16.2061 14.6109 16.2292 14.4949 16.2292 14.3777C16.2292 14.2606 16.2061 14.1446 16.1613 14.0363C16.1164 13.9281 16.0507 13.8298 15.9679 13.7469L15.9679 13.7469L12.6361 10.416C13.6014 9.13496 14.0541 7.53846 13.9032 5.93943C13.7494 4.31054 12.9809 2.80139 11.754 1.719C10.5271 0.636623 8.93385 0.0623154 7.2985 0.11292C5.66315 0.163525 4.10851 0.835233 2.95084 1.99141ZM2.95084 1.99141L3.0215 2.06217L2.95084 1.99141ZM10.7889 3.25366C11.2264 3.68416 11.5744 4.19703 11.8128 4.76269C12.0512 5.32835 12.1752 5.93561 12.1777 6.54944C12.1802 7.16327 12.0611 7.77152 11.8274 8.3391C11.5936 8.90669 11.2498 9.42238 10.8158 9.85642C10.3817 10.2905 9.86602 10.6343 9.29843 10.868C8.73085 11.1018 8.1226 11.2208 7.50877 11.2183C6.89494 11.2158 6.28768 11.0918 5.72202 10.8535C5.15636 10.6151 4.64349 10.2671 4.21299 9.82954C3.35268 8.95509 2.87275 7.77613 2.87774 6.54944C2.88274 5.32275 3.37225 4.14773 4.23966 3.28033C5.10706 2.41292 6.28208 1.92341 7.50877 1.91841C8.73546 1.91342 9.91442 2.39335 10.7889 3.25366Z" fill="black" stroke="black" stroke-width="0.2"/>
</svg>
