<svg width="19" height="17" viewBox="0 0 19 17" fill="none" xmlns="http://www.w3.org/2000/svg">
<path d="M11.4579 16.8333C12.0104 16.8333 12.5403 16.6138 12.931 16.2231C13.3217 15.8324 13.5412 15.3025 13.5412 14.75C13.5412 14.1974 13.3217 13.6675 12.931 13.2768C12.5403 12.8861 12.0104 12.6666 11.4579 12.6666C10.9054 12.6666 10.3755 12.8861 9.98475 13.2768C9.59405 13.6675 9.37456 14.1974 9.37456 14.75C9.37456 15.3025 9.59405 15.8324 9.98475 16.2231C10.3755 16.6138 10.9054 16.8333 11.4579 16.8333ZM4.16623 16.8333C4.71876 16.8333 5.24866 16.6138 5.63936 16.2231C6.03006 15.8324 6.24956 15.3025 6.24956 14.75C6.24956 14.1974 6.03006 13.6675 5.63936 13.2768C5.24866 12.8861 4.71876 12.6666 4.16623 12.6666C3.61369 12.6666 3.08379 12.8861 2.69309 13.2768C2.30239 13.6675 2.08289 14.1974 2.08289 14.75C2.08289 15.3025 2.30239 15.8324 2.69309 16.2231C3.08379 16.6138 3.61369 16.8333 4.16623 16.8333ZM17.7475 2.16975C18.0075 2.16136 18.2541 2.05217 18.4351 1.86525C18.6161 1.67834 18.7173 1.42836 18.7173 1.16819C18.7173 0.908013 18.6161 0.658037 18.4351 0.471123C18.2541 0.28421 18.0075 0.175013 17.7475 0.166626H16.5485C15.6089 0.166626 14.7964 0.818709 14.5923 1.73538L13.2871 7.61246C13.0829 8.52912 12.2704 9.18121 11.3308 9.18121H3.50581L2.00373 3.17079H11.7381C11.9957 3.15904 12.2388 3.04844 12.417 2.86199C12.5951 2.67555 12.6945 2.42761 12.6945 2.16975C12.6945 1.91189 12.5951 1.66395 12.417 1.47751C12.2388 1.29106 11.9957 1.18046 11.7381 1.16871H2.00373C1.69921 1.16862 1.39868 1.23796 1.12499 1.37145C0.851297 1.50495 0.611643 1.69909 0.424244 1.93911C0.236845 2.17913 0.106636 2.45872 0.0435162 2.75662C-0.0196056 3.05452 -0.0139751 3.36289 0.0599766 3.65829L1.56206 9.66662C1.67035 10.1002 1.92048 10.485 2.27269 10.7601C2.6249 11.0351 3.05895 11.1844 3.50581 11.1843H11.3308C12.2425 11.1845 13.1269 10.8736 13.8381 10.3032C14.5492 9.73275 15.0446 8.93681 15.2423 8.04683L16.5485 2.16975H17.7475Z" fill="#0156FF"/>
</svg>
