<svg width="65" height="68" viewBox="0 0 65 68" fill="none" xmlns="http://www.w3.org/2000/svg">
<circle cx="32.5" cy="34.0317" r="32.5" fill="#0156FF"/>
<path d="M45.2045 22.5264C45.129 22.3386 44.9841 22.187 44.7998 22.1033C44.6155 22.0196 44.406 22.0102 44.215 22.077C44.0239 22.1439 43.866 22.2818 43.774 22.4621C43.682 22.6424 43.6631 22.8512 43.7212 23.0451C44.9289 26.5161 42.5317 29.1083 40.7039 30.4967L39.9655 29.4385C39.7172 29.0836 39.1621 28.7885 38.7305 28.7833L34.5861 28.8015C34.0798 28.8168 33.5871 28.9686 33.16 29.2409L20.9478 37.804C20.6637 38.0039 20.4704 38.3082 20.4102 38.6503C20.3501 38.9924 20.4279 39.3444 20.6267 39.6292L26.1764 47.5696C26.5924 48.1611 27.2567 48.0896 27.8495 47.6762L40.0617 39.1118C40.4127 38.8635 40.8183 38.3279 40.9613 37.9184L42.2587 33.8299C42.4017 33.4217 42.3146 32.799 42.0663 32.4441L41.6165 31.7993C44.0709 29.9182 46.6189 26.5941 45.2045 22.5264ZM39.5222 34.6918C39.2972 34.8493 39.0434 34.9609 38.7753 35.0203C38.5071 35.0796 38.2299 35.0856 37.9595 35.0378C37.6891 34.9899 37.4307 34.8893 37.1992 34.7416C36.9677 34.5939 36.7675 34.4021 36.6102 34.177C36.2916 33.7216 36.1667 33.1583 36.263 32.6109C36.3593 32.0635 36.6688 31.5766 37.1237 31.2572C37.4803 31.0074 37.906 30.8752 38.3414 30.8791C38.7768 30.8831 39.2001 31.023 39.5521 31.2793C39.1985 31.4925 38.9554 31.6173 38.9099 31.6368C38.7487 31.7136 38.6184 31.8429 38.5404 32.0035C38.4623 32.1641 38.4411 32.3464 38.4803 32.5206C38.5194 32.6948 38.6165 32.8505 38.7558 32.9622C38.895 33.074 39.068 33.1352 39.2466 33.1357C39.3584 33.1357 39.4728 33.1097 39.5807 33.059C39.8329 32.9394 40.1033 32.7977 40.3854 32.63C40.4503 33.0201 40.4037 33.4206 40.2509 33.7853C40.0982 34.1501 39.8456 34.4643 39.5222 34.6918Z" fill="white"/>
</svg>
