<svg width="65" height="68" viewBox="0 0 65 68" fill="none" xmlns="http://www.w3.org/2000/svg">
<circle cx="32.4999" cy="33.5" r="32.5" fill="#0156FF"/>
<path d="M32.9113 21.3923C26.106 21.3923 20.5695 26.9289 20.5695 33.7341V38.8473C20.5695 40.1111 21.6766 41.1392 23.0379 41.1392H24.2721C24.5994 41.1392 24.9133 41.0091 25.1447 40.7777C25.3762 40.5462 25.5062 40.2323 25.5062 39.905V33.5576C25.5062 33.2303 25.3762 32.9164 25.1447 32.6849C24.9133 32.4535 24.5994 32.3234 24.2721 32.3234H23.1514C23.8376 27.5472 27.9474 23.8607 32.9113 23.8607C37.8752 23.8607 41.985 27.5472 42.6712 32.3234H41.5505C41.2232 32.3234 40.9093 32.4535 40.6778 32.6849C40.4464 32.9164 40.3164 33.2303 40.3164 33.5576V41.1392C40.3164 42.5005 39.2093 43.6075 37.848 43.6075H35.3796V42.3733H30.4429V46.0759H37.848C40.5706 46.0759 42.7847 43.8618 42.7847 41.1392C44.146 41.1392 45.2531 40.1111 45.2531 38.8473V33.7341C45.2531 26.9289 39.7165 21.3923 32.9113 21.3923Z" fill="white"/>
</svg>
