<svg width="77" height="27" viewBox="0 0 77 27" fill="none" xmlns="http://www.w3.org/2000/svg">
<g clip-path="url(#clip0)">
<path d="M27.2843 10.1111L21.1211 15.5228H5.85658C4.43278 15.5209 3.05748 16.0276 1.98999 16.9472L9.68879 10.1856L9.80691 10.0834L19.4525 1.60541C21.0077 0.239821 23.1912 -0.212136 25.1805 0.419784C27.1697 1.0517 28.6625 2.6715 29.0964 4.669C29.5304 6.6665 28.8396 8.73825 27.2843 10.1038V10.1111Z" fill="#F15B41"/>
<path d="M5.85671 11.5798C9.09128 11.5798 11.7134 9.02037 11.7134 5.86313C11.7134 2.70588 9.09128 0.146423 5.85671 0.146423C2.62214 0.146423 0 2.70588 0 5.86313C0 9.02037 2.62214 11.5798 5.85671 11.5798Z" fill="#F99D1D"/>
<path d="M5.85673 15.5228C4.43293 15.521 3.05762 16.0276 1.99014 16.9473L1.9408 16.991C-0.463868 19.1021 -0.66001 22.7161 1.5027 25.0633C3.66541 27.4105 7.368 27.602 9.77267 25.4909L21.1227 15.5243L5.85673 15.5228Z" fill="#272560"/>
<path d="M21.1133 15.5272L9.76202 25.4939C8.68718 26.4373 7.29167 26.9574 5.84619 26.9534L23.359 26.9533C26.737 26.9006 29.122 24.42 29.122 21.2373C29.122 18.0547 26.5566 15.5712 23.359 15.5214L21.1133 15.5272Z" fill="#00B6BD"/>
<path d="M37.6125 22.1742C37.1249 22.1918 36.6532 22.004 36.318 21.659C35.9899 21.3107 35.8149 20.8513 35.8306 20.3791C35.826 19.9034 35.9468 19.4346 36.1815 19.0174C36.3877 18.6443 36.6396 18.2969 36.9315 17.9826L44.1777 10.0111H37.8615C37.2495 10.0111 36.8115 9.80675 36.5715 9.40102C36.3379 8.99344 36.2213 8.53216 36.234 8.06561C36.2172 7.61598 36.3503 7.1731 36.6135 6.80318C36.8744 6.4531 37.299 6.25448 37.743 6.27486H48.9026C49.3744 6.2537 49.8346 6.42141 50.176 6.73896C50.4925 7.04691 50.653 7.48475 50.653 8.03934C50.6664 8.47121 50.5738 8.89996 50.383 9.2901C50.1999 9.63001 49.9704 9.94422 49.7006 10.2242L42.1543 18.4365H49.3046C49.7347 18.4261 50.1442 18.6158 50.407 18.9473C50.6871 19.318 50.8284 19.7706 50.8075 20.2302C50.8279 20.709 50.71 21.1838 50.467 21.6006C50.2225 21.9816 49.789 22.1757 49.1801 22.1757L37.6125 22.1742Z" fill="#272560"/>
<path d="M55.1424 22.3844C53.1565 22.3844 52.7425 21.392 52.7425 20.5601V8.41737C52.7425 7.7825 52.939 7.26877 53.329 6.89077C53.7189 6.51277 54.3399 6.32012 55.1769 6.32012C55.8819 6.32012 56.4398 6.47629 56.8373 6.78569C57.2348 7.0951 57.4553 7.59423 57.4553 8.23639V20.4959C57.4553 21.1628 57.2393 21.6532 56.8133 21.9553C56.3873 22.2574 55.8399 22.3844 55.1424 22.3844ZM55.1424 5.01683C54.3684 5.01683 53.7339 4.79645 53.254 4.36153C52.774 3.92661 52.5235 3.32677 52.5235 2.58975C52.5051 1.93634 52.7689 1.30533 53.251 0.850069C53.7264 0.396178 54.3639 0.164124 55.1424 0.164124C55.7844 0.165486 56.4084 0.370434 56.9198 0.747907C57.4778 1.1478 57.7613 1.76953 57.7613 2.59558C57.7613 3.33261 57.5153 3.92953 57.0308 4.36883C56.5463 4.80812 55.9119 5.0212 55.1424 5.0212V5.01683Z" fill="#272560"/>
<path d="M62.6331 27.0373C60.7762 27.0373 60.3832 26.0288 60.3832 25.1823V8.00579C60.3671 7.46779 60.5799 6.94717 60.9711 6.56674C61.3596 6.18874 61.9821 5.99609 62.8191 5.99609C63.3397 5.99094 63.854 6.10704 64.319 6.33469C64.8125 6.58134 65.069 7.06443 65.069 7.75768C65.169 7.64578 65.2765 7.53097 65.3915 7.41324C65.7067 7.10188 66.0592 6.82846 66.4414 6.59885C67.3705 6.03465 68.4468 5.74279 69.5418 5.7582C70.5911 5.73836 71.6307 5.95726 72.5777 6.39745C73.4444 6.81371 74.199 7.42148 74.7811 8.17217C75.3879 8.97509 75.8308 9.8837 76.0861 10.8488C76.3781 11.9394 76.5213 13.0626 76.5121 14.1896C76.5228 15.3375 76.358 16.4806 76.0231 17.5814C75.7272 18.5592 75.2414 19.4728 74.5922 20.2727C73.9666 21.0264 73.1738 21.6326 72.2732 22.0459C71.2933 22.4831 70.2252 22.7011 69.1473 22.6837C68.4255 22.7039 67.7054 22.6052 67.0174 22.3918C66.5233 22.2288 66.0537 22.0026 65.621 21.719C65.3864 21.5641 65.1701 21.3844 64.976 21.1834V25.0948C64.976 25.7749 64.7855 26.277 64.409 26.5864C64.0325 26.8958 63.4536 27.0373 62.6331 27.0373ZM68.3419 9.64916C67.8308 9.63713 67.3251 9.75323 66.8734 9.98629C66.4484 10.2208 66.0841 10.5468 65.8085 10.9393C65.4988 11.3835 65.2728 11.8776 65.141 12.3988C64.9858 13.0044 64.9097 13.6267 64.9145 14.2509C64.9145 15.6724 65.2145 16.8123 65.8145 17.6398C66.4144 18.4673 67.2289 18.8541 68.3479 18.8541C69.4668 18.8541 70.2813 18.4396 70.8468 17.5858C71.4123 16.732 71.7138 15.5951 71.7138 14.2509C71.7156 13.6284 71.637 13.0081 71.4798 12.4046C71.348 11.8857 71.1269 11.3923 70.8258 10.9452C70.558 10.5521 70.1981 10.2265 69.7758 9.99505C69.3363 9.76177 68.8425 9.64264 68.3419 9.64916Z" fill="#272560"/>
</g>
<defs>
<clipPath id="clip0">
<rect width="77" height="27" fill="white"/>
</clipPath>
</defs>
</svg>
